<svg xmlns="http://www.w3.org/2000/svg" width="40" height="40" viewBox="0 0 16 16" fill="none">
  <path d="M7.998 14.5c-3.312 0-6-2.246-6-5.014 0-3.047 2.262-5.674 3.625-7.018.27-.266.717-.058.717.318 0 1.335.877 2.562 1.753 2.562.645 0 .972-.379 1.096-.65.258-.564.2-1.363.027-2.043-.098-.387.3-.726.65-.498C10.87 3.534 14 6.186 14 9.486c0 2.768-2.688 5.014-6.002 5.014z" fill="#f85149"/>
  <path d="M8.7 13.563c-1.822 0-3.3-1.235-3.3-2.758 0-1.677 1.244-3.122 1.994-3.862.149-.146.394-.032.394.175 0 .734.482 1.41.964 1.41.355 0 .534-.209.603-.358.142-.31.11-.75.015-1.124-.054-.213.165-.4.357-.274 1.266.894 2.987 2.354 2.987 4.033 0 1.523-1.479 2.758-3.014 2.758z" fill="#f0883e"/>
</svg>
